<svg xmlns="http://www.w3.org/2000/svg" width="1200" height="630" viewBox="0 0 1200 630" role="img" aria-label="Habit Tracker Without Internet: Your Complete Guide">
  <defs>
    <pattern id="grid" width="48" height="48" patternUnits="userSpaceOnUse">
      <path d="M48 0H0V48" fill="none" stroke="rgba(15, 23, 42, 0.07)" stroke-width="1" />
    </pattern>
    <filter id="shadowSoft" x="-20%" y="-20%" width="140%" height="150%">
      <feDropShadow dx="0" dy="20" stdDeviation="24" flood-color="#0f172a" flood-opacity="0.12" />
    </filter>
    <filter id="shadowBoard" x="-20%" y="-20%" width="140%" height="150%">
      <feDropShadow dx="0" dy="24" stdDeviation="28" flood-color="#0f172a" flood-opacity="0.16" />
    </filter>
    <clipPath id="boardClip">
      <rect x="664" y="74" width="476" height="482" rx="42" />
    </clipPath>
  </defs>

  <rect width="1200" height="630" fill="#f6efe6" />
  <path d="M0 500 H1200" stroke="rgba(15, 23, 42, 0.1)" stroke-width="2" />
  <path d="M620 0 V630" stroke="rgba(15, 23, 42, 0.08)" stroke-width="2" />

  <rect x="56" y="56" width="560" height="518" rx="40" fill="rgba(255, 255, 255, 0.74)" stroke="rgba(15, 23, 42, 0.08)" filter="url(#shadowSoft)" />

  <rect x="88" y="84" width="190" height="38" rx="19" fill="rgba(255, 255, 255, 0.88)" stroke="rgba(15, 23, 42, 0.08)" />
  <circle cx="112" cy="103" r="8" fill="#0ea5e9" />
  <text x="130" y="109" fill="#0f172a" font-family="'Avenir Next', 'Segoe UI', 'Trebuchet MS', sans-serif" font-size="13" font-weight="700" letter-spacing="0.18em">HABBIT RUNNER BLOG</text>

  <text x="88" y="152" fill="rgba(15, 23, 42, 0.56)" font-family="'Avenir Next', 'Segoe UI', 'Trebuchet MS', sans-serif" font-size="14" font-weight="700" letter-spacing="0.24em">RESILIENT TRACKING</text>

  <text x="88" y="226" fill="#0f172a" font-family="'Iowan Old Style', Georgia, 'Times New Roman', serif" font-size="74" font-weight="700"><tspan x="88" dy="0">Airplane</tspan><tspan x="88" dy="72">Mode Ready</tspan></text>

  
      <g transform="translate(88 430)">
        <rect width="100" height="34" rx="17" fill="rgba(15, 23, 42, 0.05)" stroke="rgba(15, 23, 42, 0.08)" />
        <circle cx="18" cy="17" r="4" fill="#0ea5e9" />
        <text x="30" y="22" fill="#0f172a" font-family="'Avenir Next', 'Segoe UI', 'Trebuchet MS', sans-serif" font-size="14" font-weight="600">no wi-fi</text>
      </g>
      <g transform="translate(200 430)">
        <rect width="136" height="34" rx="17" fill="rgba(15, 23, 42, 0.05)" stroke="rgba(15, 23, 42, 0.08)" />
        <circle cx="18" cy="17" r="4" fill="#0ea5e9" />
        <text x="30" y="22" fill="#0f172a" font-family="'Avenir Next', 'Segoe UI', 'Trebuchet MS', sans-serif" font-size="14" font-weight="600">always works</text>
      </g>

  <text x="88" y="498" fill="rgba(15, 23, 42, 0.72)" font-family="'Avenir Next', 'Segoe UI', 'Trebuchet MS', sans-serif" font-size="20" font-weight="600"><tspan x="88" dy="0">Habit Tracker Without</tspan><tspan x="88" dy="26">Internet: Your Complete Guide</tspan></text>
  <text x="88" y="572" fill="rgba(15, 23, 42, 0.4)" font-family="'Avenir Next', 'Segoe UI', 'Trebuchet MS', sans-serif" font-size="14" font-weight="700" letter-spacing="0.08em">EDITORIAL COVER / HABIT-TRACKER-WITHOUT-INTERNET</text>

  <g filter="url(#shadowBoard)">
    <rect x="664" y="74" width="476" height="482" rx="42" fill="#081225" stroke="rgba(255, 255, 255, 0.22)" />
  </g>
  <rect x="694" y="104" width="132" height="34" rx="17" fill="rgba(255, 255, 255, 0.08)" stroke="rgba(255, 255, 255, 0.14)" />
  <text x="720" y="126" fill="#f8fafc" font-family="'Avenir Next', 'Segoe UI', 'Trebuchet MS', sans-serif" font-size="13" font-weight="700" letter-spacing="0.1em">resilient tracking</text>
  <g clip-path="url(#boardClip)">
    <g transform="translate(671 80) scale(1)">
    <path d="M72 334 C116 266 166 218 224 198 C280 178 326 134 360 84" fill="none" stroke="rgba(14, 165, 233, 0.82)" stroke-width="16" stroke-linecap="round" />
    <path d="M84 362 C132 294 188 246 244 228 C294 212 338 176 388 108" fill="none" stroke="rgba(20, 184, 166, 0.72)" stroke-width="8" stroke-dasharray="10 18" stroke-linecap="round" />
    <circle cx="84" cy="362" r="24" fill="rgba(251, 113, 133, 0.18)" stroke="rgba(251, 113, 133, 0.55)" stroke-width="2" />
    <circle cx="84" cy="362" r="8" fill="#fb7185" />
    <circle cx="214" cy="212" r="22" fill="rgba(20, 184, 166, 0.18)" stroke="rgba(20, 184, 166, 0.48)" stroke-width="2" />
    <circle cx="214" cy="212" r="8" fill="#14b8a6" />
    <circle cx="360" cy="84" r="26" fill="rgba(14, 165, 233, 0.18)" stroke="rgba(14, 165, 233, 0.48)" stroke-width="2" />
    <circle cx="360" cy="84" r="8" fill="#0ea5e9" />
    <path d="M309 300 a58 58 0 0 1 82 0" fill="none" stroke="rgba(255, 255, 255, 0.28)" stroke-width="8" stroke-linecap="round" />
    <path d="M320 326 a42 42 0 0 1 60 0" fill="none" stroke="rgba(255, 255, 255, 0.34)" stroke-width="8" stroke-linecap="round" />
    <path d="M332 350 a26 26 0 0 1 36 0" fill="none" stroke="rgba(255, 255, 255, 0.4)" stroke-width="8" stroke-linecap="round" />
    <line x1="312" y1="284" x2="390" y2="366" stroke="rgba(251, 113, 133, 0.8)" stroke-width="8" stroke-linecap="round" />
    <rect x="80" y="84" width="108" height="64" rx="20" fill="rgba(255, 255, 255, 0.08)" stroke="rgba(255, 255, 255, 0.18)" />
    <text x="104" y="118" fill="#eff6ff" font-family="'Avenir Next', 'Segoe UI', 'Trebuchet MS', sans-serif" font-size="14" font-weight="700">signal</text>
  </g>
  </g>
</svg>
